<?xml version="1.0" encoding="UTF-8"?>
<!DOCTYPE svg PUBLIC "-//W3C//DTD SVG 1.1//EN" "http://www.w3.org/Graphics/SVG/1.1/DTD/svg11.dtd">
<svg xmlns="http://www.w3.org/2000/svg" version="1.1" width="115px" height="115px" style="shape-rendering:geometricPrecision; text-rendering:geometricPrecision; image-rendering:optimizeQuality; fill-rule:evenodd; clip-rule:evenodd" xmlns:xlink="http://www.w3.org/1999/xlink">
<g><path style="opacity:0.939" fill="#525252" d="M 65.5,11.5 C 65.5,12.1667 65.5,12.8333 65.5,13.5C 64.5,13.5 63.5,13.5 62.5,13.5C 62.1716,25.6783 62.5049,37.6783 63.5,49.5C 63.3284,50.4916 63.6618,51.1583 64.5,51.5C 63.2196,52.9313 61.5529,53.5979 59.5,53.5C 59.5,39.5 59.5,25.5 59.5,11.5C 61.5,11.5 63.5,11.5 65.5,11.5 Z"/></g>
<g><path style="opacity:0.515" fill="#3f4147" d="M 65.5,13.5 C 69.4695,14.6603 73.4695,15.8269 77.5,17C 78.3805,17.7083 79.0472,18.5416 79.5,19.5C 75.0155,18.0602 70.5155,16.7268 66,15.5C 65.6667,16.1667 65.3333,16.8333 65,17.5C 64.1679,27.1839 64.3345,36.8505 65.5,46.5C 68.0354,45.1 70.702,44.1 73.5,43.5C 70.2349,45.4721 66.9015,47.4721 63.5,49.5C 62.5049,37.6783 62.1716,25.6783 62.5,13.5C 63.5,13.5 64.5,13.5 65.5,13.5 Z"/></g>
<g><path style="opacity:0.996" fill="#7f8083" d="M 65.5,11.5 C 69.5568,11.8478 73.5568,12.5145 77.5,13.5C 80.6508,15.583 83.6508,17.9163 86.5,20.5C 86,20.8333 85.5,21.1667 85,21.5C 83.1997,20.6805 81.3664,20.0138 79.5,19.5C 79.0472,18.5416 78.3805,17.7083 77.5,17C 73.4695,15.8269 69.4695,14.6603 65.5,13.5C 65.5,12.8333 65.5,12.1667 65.5,11.5 Z"/></g>
<g><path style="opacity:0.971" fill="#5f6163" d="M 46.5,12.5 C 43.6713,14.6311 40.338,16.1311 36.5,17C 34.1582,18.3919 34.1582,19.2252 36.5,19.5C 29.8952,22.8206 23.8952,27.1539 18.5,32.5C 17.4173,31.635 17.2506,30.635 18,29.5C 20.7291,26.6007 23.5624,23.934 26.5,21.5C 32.3806,16.8956 39.0472,13.8956 46.5,12.5 Z"/></g>
<g><path style="opacity:0.979" fill="#868789" d="M 46.5,12.5 C 46.8333,12.5 47.1667,12.5 47.5,12.5C 49.9479,13.4731 52.6146,13.8064 55.5,13.5C 55.1673,29.1808 55.5006,44.8475 56.5,60.5C 57.1067,60.3764 57.44,60.0431 57.5,59.5C 66.3472,54.9102 75.3472,50.5768 84.5,46.5C 85.8333,46.5 86.5,47.1667 86.5,48.5C 76.6419,53.2614 66.9753,58.2614 57.5,63.5C 55.965,64.3543 54.6316,64.3543 53.5,63.5C 53.8296,47.6578 53.4963,31.9911 52.5,16.5C 47.0455,16.9451 41.7121,17.9451 36.5,19.5C 34.1582,19.2252 34.1582,18.3919 36.5,17C 40.338,16.1311 43.6713,14.6311 46.5,12.5 Z"/></g>
<g><path style="opacity:0.525" fill="#5d6066" d="M 55.5,13.5 C 56.1667,28.8333 56.8333,44.1667 57.5,59.5C 57.44,60.0431 57.1067,60.3764 56.5,60.5C 55.5006,44.8475 55.1673,29.1808 55.5,13.5 Z"/></g>
<g><path style="opacity:1" fill="#535457" d="M 77.5,13.5 C 86.95,16.6149 93.95,22.6149 98.5,31.5C 97.7656,32.8775 97.0989,34.3775 96.5,36C 93.4734,37.5133 90.4734,39.0133 87.5,40.5C 87.6309,39.6236 87.2975,38.9569 86.5,38.5C 83.7659,40.3706 80.7659,41.3706 77.5,41.5C 81.6122,38.9409 85.9455,36.6076 90.5,34.5C 90.8333,33.8333 91.1667,33.1667 91.5,32.5C 90.2331,30.0565 88.7331,27.7231 87,25.5C 84.3123,23.636 81.8123,21.636 79.5,19.5C 81.3664,20.0138 83.1997,20.6805 85,21.5C 85.5,21.1667 86,20.8333 86.5,20.5C 83.6508,17.9163 80.6508,15.583 77.5,13.5 Z"/></g>
<g><path style="opacity:0.914" fill="#47484b" d="M 52.5,16.5 C 52.815,20.3714 52.4816,24.0381 51.5,27.5C 51.5,24.5 51.5,21.5 51.5,18.5C 25.2751,22.0596 10.9417,37.0596 8.5,63.5C 9.23606,69.7797 10.9027,75.7797 13.5,81.5C 15.1374,85.3765 16.4708,89.3765 17.5,93.5C 16.448,93.6495 15.448,93.4828 14.5,93C 13.2853,90.6246 11.6186,88.7912 9.5,87.5C -1.20173,63.5424 2.79827,42.3757 21.5,24C 23.0779,22.9055 24.7446,22.0722 26.5,21.5C 23.5624,23.934 20.7291,26.6007 18,29.5C 17.2506,30.635 17.4173,31.635 18.5,32.5C 23.8952,27.1539 29.8952,22.8206 36.5,19.5C 41.7121,17.9451 47.0455,16.9451 52.5,16.5 Z"/></g>
<g><path style="opacity:0.628" fill="#606366" d="M 52.5,16.5 C 53.4963,31.9911 53.8296,47.6578 53.5,63.5C 52.8333,63.1667 52.1667,62.8333 51.5,62.5C 52.5569,51.0043 52.5569,39.3376 51.5,27.5C 52.4816,24.0381 52.815,20.3714 52.5,16.5 Z"/></g>
<g><path style="opacity:0.416" fill="#393d44" d="M 102.5,80.5 C 100.109,82.6148 98.7759,85.2814 98.5,88.5C 96.523,77.8842 95.8564,66.8842 96.5,55.5C 94.5,55.5 92.5,55.5 90.5,55.5C 87.8333,55.5 85.1667,55.5 82.5,55.5C 82.5,70.5 82.5,85.5 82.5,100.5C 81.1667,100.5 79.8333,100.5 78.5,100.5C 77.209,100.737 76.209,100.404 75.5,99.5C 75.6665,88.1618 75.4999,76.8284 75,65.5C 70.7331,64.178 66.5664,64.178 62.5,65.5C 62.1667,65.5 61.8333,65.5 61.5,65.5C 60.4863,64.3263 59.153,63.6596 57.5,63.5C 66.9753,58.2614 76.6419,53.2614 86.5,48.5C 89.5928,46.4618 92.9261,44.7951 96.5,43.5C 99.8839,48.9813 101.217,54.9813 100.5,61.5C 100.53,67.9209 99.8631,74.2543 98.5,80.5C 99.8333,80.5 101.167,80.5 102.5,80.5 Z M 91.5,59.5 C 93.0771,63.4329 92.4104,67.0996 89.5,70.5C 88.914,70.2907 88.414,69.9574 88,69.5C 87.5034,67.1902 87.3367,64.8568 87.5,62.5C 87.5,61.5 87.5,60.5 87.5,59.5C 88.8333,59.5 90.1667,59.5 91.5,59.5 Z"/></g>
<g><path style="opacity:0.336" fill="#383c44" d="M 77.5,13.5 C 73.5568,12.5145 69.5568,11.8478 65.5,11.5C 63.5,11.5 61.5,11.5 59.5,11.5C 59.5,25.5 59.5,39.5 59.5,53.5C 61.5529,53.5979 63.2196,52.9313 64.5,51.5C 72.2928,48.1037 79.9594,44.437 87.5,40.5C 90.4734,39.0133 93.4734,37.5133 96.5,36C 97.0989,34.3775 97.7656,32.8775 98.5,31.5C 100.999,39.6783 103.332,48.0117 105.5,56.5C 104.25,56.4226 103.417,55.756 103,54.5C 101.959,50.0022 100.459,45.6689 98.5,41.5C 97.8333,41.1667 97.1667,40.8333 96.5,40.5C 92.1652,42.0007 88.1652,44.0007 84.5,46.5C 75.3472,50.5768 66.3472,54.9102 57.5,59.5C 56.8333,44.1667 56.1667,28.8333 55.5,13.5C 52.6146,13.8064 49.9479,13.4731 47.5,12.5C 53.3218,12.2935 58.9885,11.2935 64.5,9.5C 69.1852,10.0643 73.5185,11.3976 77.5,13.5 Z"/></g>
<g><path style="opacity:0.992" fill="#737476" d="M 87.5,40.5 C 79.9594,44.437 72.2928,48.1037 64.5,51.5C 63.6618,51.1583 63.3284,50.4916 63.5,49.5C 66.9015,47.4721 70.2349,45.4721 73.5,43.5C 74.5137,42.3263 75.847,41.6596 77.5,41.5C 80.7659,41.3706 83.7659,40.3706 86.5,38.5C 87.2975,38.9569 87.6309,39.6236 87.5,40.5 Z"/></g>
<g><path style="opacity:0.95" fill="#676768" d="M 90.5,55.5 C 90.9175,56.2216 91.5842,56.7216 92.5,57C 90.1902,57.4966 87.8568,57.6633 85.5,57.5C 85.5,71.8333 85.5,86.1667 85.5,100.5C 87.5273,100.338 89.5273,100.505 91.5,101C 91.1667,101.333 90.8333,101.667 90.5,102C 86.1794,102.499 81.8461,102.666 77.5,102.5C 77.8333,101.833 78.1667,101.167 78.5,100.5C 79.8333,100.5 81.1667,100.5 82.5,100.5C 82.5,85.5 82.5,70.5 82.5,55.5C 85.1667,55.5 87.8333,55.5 90.5,55.5 Z"/></g>
<g><path style="opacity:0.887" fill="#505050" d="M 105.5,56.5 C 106.086,64.7328 105.086,72.7328 102.5,80.5C 101.167,80.5 99.8333,80.5 98.5,80.5C 99.8631,74.2543 100.53,67.9209 100.5,61.5C 101.217,54.9813 99.8839,48.9813 96.5,43.5C 92.9261,44.7951 89.5928,46.4618 86.5,48.5C 86.5,47.1667 85.8333,46.5 84.5,46.5C 88.1652,44.0007 92.1652,42.0007 96.5,40.5C 97.1667,40.8333 97.8333,41.1667 98.5,41.5C 100.459,45.6689 101.959,50.0022 103,54.5C 103.417,55.756 104.25,56.4226 105.5,56.5 Z"/></g>
<g><path style="opacity:0.36" fill="#343840" d="M 51.5,62.5 C 52.1667,62.8333 52.8333,63.1667 53.5,63.5C 54.6316,64.3543 55.965,64.3543 57.5,63.5C 59.153,63.6596 60.4863,64.3263 61.5,65.5C 61.5,76.8333 61.5,88.1667 61.5,99.5C 59.1667,99.5 56.8333,99.5 54.5,99.5C 54.6665,90.1607 54.4998,80.8274 54,71.5C 49.4001,70.1771 44.9001,70.1771 40.5,71.5C 39.5064,80.6517 39.1731,89.985 39.5,99.5C 37.5,99.5 35.5,99.5 33.5,99.5C 33.5,91.8333 33.5,84.1667 33.5,76.5C 28.8333,76.5 24.1667,76.5 19.5,76.5C 19.9175,75.7784 20.5842,75.2784 21.5,75C 25.8333,74.6667 30.1667,74.3333 34.5,74C 38.8087,70.328 43.8087,67.9947 49.5,67C 51.0368,65.8904 51.7035,64.3904 51.5,62.5 Z"/></g>
<g><path style="opacity:0.945" fill="#595a5c" d="M 40.5,71.5 C 40.5,81.1667 40.5,90.8333 40.5,100.5C 37.8333,100.5 35.1667,100.5 32.5,100.5C 32.8308,92.8045 32.4975,85.1378 31.5,77.5C 31.1667,77.6667 30.8333,77.8333 30.5,78C 31.436,86.2921 31.7693,94.4588 31.5,102.5C 28.5,102.5 25.5,102.5 22.5,102.5C 18.1161,102.826 13.7828,102.492 9.5,101.5C 9.70931,100.914 10.0426,100.414 10.5,100C 13.146,99.5026 15.8127,99.3359 18.5,99.5C 18.8245,92.3134 18.4912,85.3134 17.5,78.5C 17.8333,77.5 18.5,76.8333 19.5,76.5C 24.1667,76.5 28.8333,76.5 33.5,76.5C 33.5,84.1667 33.5,91.8333 33.5,99.5C 35.5,99.5 37.5,99.5 39.5,99.5C 39.1731,89.985 39.5064,80.6517 40.5,71.5 Z"/></g>
<g><path style="opacity:0.911" fill="#6a6c6f" d="M 62.5,65.5 C 66.5664,64.178 70.7331,64.178 75,65.5C 75.4999,76.8284 75.6665,88.1618 75.5,99.5C 74.6698,89.6751 74.1698,79.6751 74,69.5C 73.5002,79.828 73.3335,90.1613 73.5,100.5C 70.5,100.5 67.5,100.5 64.5,100.5C 64.1721,89.3206 64.5054,78.3206 65.5,67.5C 65.5,78.1667 65.5,88.8333 65.5,99.5C 67.8333,99.5 70.1667,99.5 72.5,99.5C 73.1428,88.4476 72.4762,77.7809 70.5,67.5C 68.3647,65.631 65.6981,64.9644 62.5,65.5 Z"/></g>
<g><path style="opacity:0.217" fill="#353a41" d="M 65.5,67.5 C 67.1667,67.5 68.8333,67.5 70.5,67.5C 72.4762,77.7809 73.1428,88.4476 72.5,99.5C 70.1667,99.5 67.8333,99.5 65.5,99.5C 65.5,88.8333 65.5,78.1667 65.5,67.5 Z"/></g>
<g><path style="opacity:0.811" fill="#505255" d="M 90.5,55.5 C 92.5,55.5 94.5,55.5 96.5,55.5C 95.8564,66.8842 96.523,77.8842 98.5,88.5C 97.5763,91.4467 97.5763,94.4467 98.5,97.5C 97.9569,97.56 97.6236,97.8933 97.5,98.5C 99.3413,99.2304 101.175,99.8971 103,100.5C 103.617,101.449 103.451,102.282 102.5,103C 77.6633,103.168 52.9966,103.668 28.5,104.5C 28.1667,104.5 27.8333,104.5 27.5,104.5C 25.8333,103.833 24.1667,103.167 22.5,102.5C 25.5,102.5 28.5,102.5 31.5,102.5C 46.8333,102.5 62.1667,102.5 77.5,102.5C 81.8461,102.666 86.1794,102.499 90.5,102C 90.8333,101.667 91.1667,101.333 91.5,101C 89.5273,100.505 87.5273,100.338 85.5,100.5C 85.5,86.1667 85.5,71.8333 85.5,57.5C 87.8568,57.6633 90.1902,57.4966 92.5,57C 91.5842,56.7216 90.9175,56.2216 90.5,55.5 Z M 91.5,59.5 C 93.0771,63.4329 92.4104,67.0996 89.5,70.5C 88.914,70.2907 88.414,69.9574 88,69.5C 87.5034,67.1902 87.3367,64.8568 87.5,62.5C 87.5,61.5 87.5,60.5 87.5,59.5C 88.8333,59.5 90.1667,59.5 91.5,59.5 Z"/></g>
<g><path style="opacity:0.297" fill="#373b42" d="M 91.5,59.5 C 91.56,58.9569 91.8933,58.6236 92.5,58.5C 93.4992,72.1504 93.8325,85.8171 93.5,99.5C 91.1667,99.5 88.8333,99.5 86.5,99.5C 86.1714,86.9887 86.5048,74.6554 87.5,62.5C 87.3367,64.8568 87.5034,67.1902 88,69.5C 88.414,69.9574 88.914,70.2907 89.5,70.5C 92.4104,67.0996 93.0771,63.4329 91.5,59.5 Z"/></g>
<g><path style="opacity:0.269" fill="#33363d" d="M 17.5,78.5 C 18.4912,85.3134 18.8245,92.3134 18.5,99.5C 15.8127,99.3359 13.146,99.5026 10.5,100C 10.0426,100.414 9.70931,100.914 9.5,101.5C 13.7828,102.492 18.1161,102.826 22.5,102.5C 24.1667,103.167 25.8333,103.833 27.5,104.5C 21.1318,104.83 14.7985,104.496 8.5,103.5C 7.57211,102.232 7.40544,100.899 8,99.5C 10.3326,98.5871 12.1659,97.0871 13.5,95C 12.3728,92.3774 11.0395,89.8774 9.5,87.5C 11.6186,88.7912 13.2853,90.6246 14.5,93C 15.448,93.4828 16.448,93.6495 17.5,93.5C 16.4708,89.3765 15.1374,85.3765 13.5,81.5C 14.8333,81.5 16.1667,81.5 17.5,81.5C 17.5,80.5 17.5,79.5 17.5,78.5 Z"/></g>
<g><path style="opacity:0.282" fill="#31363e" d="M 22.5,79.5 C 24.8333,79.5 27.1667,79.5 29.5,79.5C 29.5,86.1667 29.5,92.8333 29.5,99.5C 27.1667,99.5 24.8333,99.5 22.5,99.5C 22.5,92.8333 22.5,86.1667 22.5,79.5 Z"/></g>
<g><path style="opacity:0.999" fill="#808183" d="M 61.5,65.5 C 61.8333,65.5 62.1667,65.5 62.5,65.5C 65.6981,64.9644 68.3647,65.631 70.5,67.5C 68.8333,67.5 67.1667,67.5 65.5,67.5C 64.5054,78.3206 64.1721,89.3206 64.5,100.5C 67.5,100.5 70.5,100.5 73.5,100.5C 73.3335,90.1613 73.5002,79.828 74,69.5C 74.1698,79.6751 74.6698,89.6751 75.5,99.5C 76.209,100.404 77.209,100.737 78.5,100.5C 78.1667,101.167 77.8333,101.833 77.5,102.5C 62.1667,102.5 46.8333,102.5 31.5,102.5C 31.7693,94.4588 31.436,86.2921 30.5,78C 30.8333,77.8333 31.1667,77.6667 31.5,77.5C 32.4975,85.1378 32.8308,92.8045 32.5,100.5C 35.1667,100.5 37.8333,100.5 40.5,100.5C 40.5,90.8333 40.5,81.1667 40.5,71.5C 44.9001,70.1771 49.4001,70.1771 54,71.5C 54.4998,80.8274 54.6665,90.1607 54.5,99.5C 56.8333,99.5 59.1667,99.5 61.5,99.5C 61.5,88.1667 61.5,76.8333 61.5,65.5 Z"/></g>
<g><path style="opacity:0.348" fill="#4a4d53" d="M 43.5,73.5 C 46.1667,73.5 48.8333,73.5 51.5,73.5C 51.5,82.5 51.5,91.5 51.5,100.5C 48.8333,100.5 46.1667,100.5 43.5,100.5C 43.5,91.5 43.5,82.5 43.5,73.5 Z"/></g>
<g><path style="opacity:0.129" fill="#32373e" d="M 44.5,74.5 C 46.5,74.5 48.5,74.5 50.5,74.5C 50.5,82.8333 50.5,91.1667 50.5,99.5C 48.5,99.5 46.5,99.5 44.5,99.5C 44.5,91.1667 44.5,82.8333 44.5,74.5 Z"/></g>
<g><path style="opacity:0.304" fill="#24272b" d="M 98.5,97.5 C 102.005,97.9622 105.005,99.4622 107.5,102C 106.5,103 105.5,104 104.5,105C 78.9586,105.34 53.6253,105.174 28.5,104.5C 52.9966,103.668 77.6633,103.168 102.5,103C 103.451,102.282 103.617,101.449 103,100.5C 101.175,99.8971 99.3413,99.2304 97.5,98.5C 97.6236,97.8933 97.9569,97.56 98.5,97.5 Z"/></g>
</svg>
